<?xml version="1.0" encoding="utf-8"?>
<!-- Generator: Adobe Illustrator 21.1.0, SVG Export Plug-In . SVG Version: 6.00 Build 0)  -->
<svg version="1.1" id="Layer_1" xmlns="http://www.w3.org/2000/svg" xmlns:xlink="http://www.w3.org/1999/xlink" x="0px" y="0px"
	 viewBox="0 0 178 53" style="enable-background:new 0 0 178 53;" xml:space="preserve">
<style type="text/css">
	.st0{fill-rule:evenodd;clip-rule:evenodd;fill:#00AEEF;}
	.st1{fill-rule:evenodd;clip-rule:evenodd;}
	.st2{fill:none;stroke:#000000;stroke-width:7.5163;stroke-linecap:round;stroke-miterlimit:3.8636;}
	.st3{fill:none;stroke:#00AEEF;stroke-width:6;stroke-linecap:round;stroke-miterlimit:3.8636;}
	.st4{fill:none;}
	.st5{font-family:'Poppins-ExtraLight';}
	.st6{font-size:6.7px;}
</style>
<path class="st0" d="M142.4,26.4c1.1,0,2.1,0.4,2.9,1.2c0.8,0.8,1.3,1.8,1.3,3c0,1.1-0.4,2.1-1.2,2.9c-0.8,0.8-1.8,1.2-2.9,1.3
	c-4.2-0.1-7.6-1.5-10.4-4.3c-2.8-2.8-4.2-6.2-4.4-10.2V4.2c0-1.2,0.4-2.2,1.2-3c0.8-0.8,1.8-1.2,3-1.2c1.1,0,2.1,0.4,3,1.2
	c0.8,0.8,1.3,1.8,1.3,3v1.1h6.3c1.1,0,2.1,0.4,3,1.2c0.8,0.8,1.3,1.8,1.3,3c0,1.1-0.4,2.1-1.3,3c-0.8,0.8-1.8,1.3-3,1.3h-6.3V20
	c0,1.7,0.6,3.2,1.9,4.5S140.7,26.4,142.4,26.4z"/>
<path class="st0" d="M178,20c0,1.2-0.4,2.2-1.2,3c-0.8,0.8-1.8,1.2-3,1.2c-1.1,0-2.1-0.4-3-1.2s-1.3-1.8-1.3-3
	c0-1.7-0.6-3.2-1.9-4.5c-1.2-1.3-2.7-1.9-4.5-1.9c-1.8,0-3.3,0.6-4.5,1.9c-1.2,1.3-1.9,2.8-1.9,4.5v10.6c0,1.2-0.4,2.2-1.3,3
	c-0.8,0.8-1.8,1.2-3,1.2c-1.2,0-2.2-0.4-3-1.2s-1.2-1.8-1.2-3V19.7c0.1-4,1.6-7.3,4.3-10.1c2.8-2.8,6.2-4.2,10.4-4.3
	c4.2,0.1,7.6,1.6,10.4,4.4C176.5,12.5,178,15.9,178,20z"/>
<path class="st1" d="M30.9,7.3c0-1.2,0.4-2.2,1.2-3c0.8-0.8,1.8-1.2,3-1.2c1.1,0,2.1,0.4,3,1.2c0.8,0.8,1.3,1.8,1.3,3v23.5
	c-0.1,4-1.6,7.3-4.4,10.2s-6.2,4.3-10.4,4.3c-1.1,0-2.1-0.5-2.9-1.3c-0.8-0.8-1.2-1.8-1.2-2.9c0-1.2,0.4-2.2,1.3-3
	c0.8-0.8,1.8-1.2,2.9-1.2c1.8,0,3.3-0.6,4.5-1.9c1.2-1.3,1.9-2.8,1.9-4.5V7.3z"/>
<path class="st1" d="M55,5.2c4.2,0.1,7.6,1.5,10.4,4.3c2.8,2.8,4.2,6.2,4.3,10.1v10.9c0,1.2-0.4,2.2-1.2,3s-1.8,1.2-3,1.2
	c-1.1,0-2.1-0.4-3-1.2c-0.8-0.8-1.3-1.8-1.3-3V20c0-1.7-0.6-3.2-1.9-4.5c-1.2-1.3-2.7-1.9-4.5-1.9c-1.8,0-3.3,0.6-4.5,1.9
	c-1.2,1.3-1.9,2.8-1.9,4.5c0,1.7,0.6,3.2,1.9,4.5c1.2,1.3,2.7,1.9,4.5,1.9c1.1,0,2.1,0.4,2.9,1.2c0.8,0.8,1.3,1.8,1.3,3
	c0,1.1-0.4,2.1-1.2,2.9s-1.8,1.2-2.9,1.3c-4.2-0.1-7.6-1.5-10.4-4.3c-2.8-2.8-4.2-6.3-4.4-10.5c0.1-4.2,1.6-7.6,4.3-10.4
	C47.4,6.8,50.8,5.3,55,5.2z"/>
<path class="st1" d="M70.7,20c0.1-4.1,1.5-7.5,4.3-10.4c2.8-2.8,6.2-4.3,10.3-4.4c4.3,0.1,7.8,1.5,10.5,4.3
	c2.8,2.8,4.2,6.2,4.3,10.1v10.9c0,1.2-0.4,2.2-1.2,3c-0.8,0.8-1.8,1.2-3,1.2c-1.1,0-2.1-0.4-3-1.2c-0.8-0.8-1.3-1.8-1.3-3V20
	c0-1.7-0.6-3.2-1.9-4.5c-1.2-1.3-2.7-1.9-4.5-1.9c-1.8,0-3.2,0.6-4.4,1.8c-1.2,1.2-1.8,2.7-1.9,4.6v10.6c0,1.2-0.4,2.2-1.3,3
	c-0.8,0.8-1.8,1.2-3,1.2c-1.2,0-2.2-0.4-3-1.2c-0.8-0.8-1.2-1.8-1.2-3L70.7,20z"/>
<path class="st2" d="M121.2,9.2c0,0-6.9,0-10.1,0c-1.1,0-6.5,0.1-6.5,5.8c0,5.8,5.6,5.5,6.2,5.5c1.6,0,4-0.2,5.2,0
	c9.2,0,9.3,10.5,0.2,10.5c-4,0-11.4,0-11.4,0"/>
<line class="st3" x1="43.8" y1="40" x2="153.8" y2="40"/>
<path class="st1" d="M14.8,5.2c4.2,0.1,7.6,1.5,10.4,4.3c2.8,2.8,4.2,6.2,4.3,10.1v10.9c0,1.2-0.4,2.2-1.2,3s-1.8,1.2-3,1.2
	c-1.1,0-2.1-0.4-3-1.2c-0.8-0.8-1.3-1.8-1.3-3V20c0-1.7-0.6-3.2-1.9-4.5c-1.2-1.3-2.7-1.9-4.5-1.9c-1.8,0-3.3,0.6-4.5,1.9
	C9,16.7,8.4,18.2,8.4,20c0,1.7,0.6,3.2,1.9,4.5c1.2,1.3,2.7,1.9,4.5,1.9c1.1,0,2.1,0.4,2.9,1.2c0.8,0.8,1.3,1.8,1.3,3
	c0,1.1-0.4,2.1-1.2,2.9s-1.8,1.2-2.9,1.3c-4.2-0.1-7.6-1.5-10.4-4.3C1.6,27.6,0.1,24.1,0,20c0.1-4.2,1.6-7.6,4.3-10.4
	C7.1,6.8,10.6,5.3,14.8,5.2z"/>
<rect x="41.4" y="46.1" class="st4" width="115.3" height="10.4"/>
<text transform="matrix(1 0 0 1 41.4292 51.1078)" class="st5 st6">Technology, Design and Marketing</text>
</svg>
