<?xml version="1.0" encoding="utf-8"?>
<!-- Generator: Adobe Illustrator 21.1.0, SVG Export Plug-In . SVG Version: 6.00 Build 0)  -->
<svg version="1.1" id="Layer_1" xmlns="http://www.w3.org/2000/svg" xmlns:xlink="http://www.w3.org/1999/xlink" x="0px" y="0px"
	 viewBox="0 0 50.4 34.8" style="enable-background:new 0 0 50.4 34.8;" xml:space="preserve">
<style type="text/css">
	.st0{fill-rule:evenodd;clip-rule:evenodd;fill:#00AEEF;}
</style>
<path class="st0" d="M14.8,26.4c1.1,0,2.1,0.4,2.9,1.2c0.8,0.8,1.3,1.8,1.3,3c0,1.1-0.4,2.1-1.2,2.9c-0.8,0.8-1.8,1.2-2.9,1.3
	c-4.2-0.1-7.6-1.5-10.4-4.3C1.6,27.7,0.1,24.3,0,20.3V4.2C0,3,0.4,2,1.2,1.2C2,0.4,3,0,4.2,0c1.1,0,2.1,0.4,3,1.2C8,2,8.4,3,8.4,4.2
	v1.1h6.3c1.1,0,2.1,0.4,3,1.2c0.8,0.8,1.3,1.8,1.3,3c0,1.1-0.4,2.1-1.3,3c-0.8,0.8-1.8,1.3-3,1.3H8.4V20c0,1.7,0.6,3.2,1.9,4.5
	S13,26.4,14.8,26.4z"/>
<path class="st0" d="M50.4,20c0,1.2-0.4,2.2-1.2,3c-0.8,0.8-1.8,1.2-3,1.2c-1.1,0-2.1-0.4-3-1.2S42,21.2,42,20
	c0-1.7-0.6-3.2-1.9-4.5c-1.2-1.3-2.7-1.9-4.5-1.9c-1.8,0-3.3,0.6-4.5,1.9c-1.2,1.3-1.9,2.8-1.9,4.5v10.6c0,1.2-0.4,2.2-1.3,3
	c-0.8,0.8-1.8,1.2-3,1.2c-1.2,0-2.2-0.4-3-1.2s-1.2-1.8-1.2-3V19.7c0.1-4,1.6-7.3,4.3-10.1c2.8-2.8,6.2-4.2,10.4-4.3
	c4.2,0.1,7.6,1.6,10.4,4.4C48.9,12.5,50.3,15.9,50.4,20z"/>
</svg>
